<?xml version="1.0" encoding="utf-8"?>
<!-- Generator: Adobe Illustrator 23.0.3, SVG Export Plug-In . SVG Version: 6.00 Build 0)  -->
<svg version="1.1" id="Layer_1" xmlns="http://www.w3.org/2000/svg" xmlns:xlink="http://www.w3.org/1999/xlink" x="0px" y="0px"
	 viewBox="0 0 32 32" style="enable-background:new 0 0 32 32;" xml:space="preserve">
<style type="text/css">
	.st0{fill:#FFFFFF;}
</style>
<g>
	<g>
		<path class="st0" d="M21.4,25.5c0.1-0.4,0.3-0.8,0.4-1c0.1-0.4,0.3-0.9,0.4-1.3c0.3-0.8,0.4-1.5,0.3-2.3c0-0.4-0.1-0.8-0.3-1.2
			c0,0,0,0-0.1-0.1c0,1.7-0.4,3.2-1.2,4.6c-0.1-0.1-0.3-0.1-0.3-0.3c-0.4-0.4-0.6-0.8-0.8-1.3c-0.3-0.6-0.3-1.4,0.3-1.9
			c0.3-0.3,0.4-0.4,0.6-0.6c0.4-0.5,0.6-1,0.6-1.7c0-0.8-0.1-1.4-0.4-2.1c0,0,0,0,0-0.1c0.1,0.1,0.4,0.1,0.5,0.3
			c0.8,0.5,1.4,1.2,1.9,1.9c0.5,0.8,0.6,1.5,0.6,2.4s-0.4,1.7-0.8,2.4C22.8,24.1,22.2,24.9,21.4,25.5C21.5,25.5,21.5,25.5,21.4,25.5
			L21.4,25.5z"/>
		<path class="st0" d="M30.3,22v-0.1c0-0.4,0-0.6,0-1c0-0.9,0-1.8-0.1-2.7c0-0.1,0-0.4,0-0.5s0-0.1,0.1-0.1s0.1,0,0.3,0
			c0.3,0,0.4,0.1,0.4,0.4c0,0.8,0,1.5,0,2.3c0,0.9,0,1.8,0,2.7c0,0.3,0,0.6,0,0.9c-0.1,0-0.3,0-0.4,0.1c-0.1,0-0.3,0-0.4-0.1
			c-0.8-1.2-1.8-2.2-2.6-3.2c-0.4-0.4-0.6-0.9-1-1.3l0,0v0.1c0,0.6,0,1.3,0,1.9c0,0.8,0,1.4,0,2.2c0,0.1,0,0.1,0,0.3
			c0,0.1-0.1,0.1-0.3,0.1h-0.1c-0.3,0-0.3,0-0.3-0.3c0-0.4,0.1-0.6,0.1-1s0-0.9,0-1.3c0-1,0-1.9-0.1-3c0-0.1,0-0.4,0-0.5
			s0-0.1,0.1-0.1c0.4-0.1,0.6,0,0.9,0.3c0.6,0.8,1.2,1.5,1.8,2.3c0.5,0.6,1,1.3,1.5,1.9C30.3,21.9,30.3,22,30.3,22L30.3,22z"/>
		<path class="st0" d="M18.1,23.7c-0.4-0.1-0.6,0-0.9,0c-0.6,0.1-1.4,0.3-2.1,0c-1-0.3-1.8-0.8-2.1-1.8c-0.3-0.6-0.3-1.2-0.1-1.8
			c0.1-0.9,0.5-1.5,1.3-2.2c0.4-0.3,0.9-0.5,1.3-0.6c0.5-0.1,1,0,1.4,0c0.3,0,0.6,0.3,0.9,0.4s0.4,0.4,0.3,0.6
			c0,0.1-0.1,0.3-0.3,0.4c-0.1,0.1-0.1,0.1-0.3,0c-0.3-0.3-0.5-0.6-0.9-0.8c-0.9-0.5-2.1-0.1-2.4,0.9c-0.3,0.5-0.4,1.2-0.3,1.8
			c0,0.6,0.3,1.2,0.5,1.7c0.4,0.6,1,0.9,1.7,0.9c0.3,0,0.5,0,0.8-0.1c0.1,0,0.3-0.1,0.3-0.3c0-0.5,0-1.2,0-1.7c0-0.1,0-0.3,0-0.3
			c0-0.1,0-0.1,0.1-0.1c0.3,0,0.5,0,0.8,0.1c0.1,0.1,0.3,0.1,0.3,0.4c0,0.5,0,1,0,1.4c0,0.3,0,0.5,0,0.9
			C18.1,23.6,18.1,23.7,18.1,23.7z"/>
		<path class="st0" d="M11.7,22.9c0,0.3,0,0.4-0.1,0.6c0,0.1-0.1,0.1-0.3,0.3c-0.4,0-0.8,0-1.3,0H9.9c-0.6,0-1.4,0-2.1,0h0
			c0-0.4,0-0.8,0.1-1.3c0-0.1,0-0.1,0-0.1c0-0.6,0-1.2,0-1.8c0-0.9,0-1.7-0.1-2.6c0-0.1,0-0.3,0-0.4s0-0.1,0.1-0.1H8
			c0.8,0,1.5,0,2.3,0c0.3,0,0.5,0,0.9,0c0.1,0,0.1,0,0.1,0.1c0,0.3-0.1,0.5-0.5,0.5c-0.5,0-1,0-1.5,0c-0.3,0-0.3,0-0.3,0.3
			c0,0.4,0,0.8,0,1.2c0,0.3,0,0.4,0,0.6c0,0.1,0,0.1,0.1,0.1c0.5,0,1,0,1.7,0c0.1,0,0.1,0,0.1,0.1c0,0.4-0.1,0.5-0.5,0.5
			s-0.8,0-1.3,0L9,21.1c0,0.5,0,1,0,1.5c0,0.3,0,0.4,0,0.6c0,0.1,0,0.1,0.1,0.1c0.8,0,1.4,0,2.2-0.1C11.5,22.9,11.6,22.9,11.7,22.9z
			"/>
		<path class="st0" d="M1.1,17.5c0.1,0,0.3-0.1,0.4-0.1c0.5,0,0.9,0,1,0.4c0.1,0.1,0.1,0.4,0.1,0.5C2.7,18.8,3,19.5,3.1,20
			c0.3,0.8,0.6,1.7,0.9,2.4c0,0.1,0,0.1,0.1,0.3c0.1-0.3,0.1-0.5,0.3-0.6c0.3-0.6,0.4-1.3,0.6-1.9c0.1-0.5,0.3-1,0.5-1.5
			c0.1-0.4,0.3-0.6,0.4-1c0.1-0.3,0.6-0.3,0.9-0.1v0.1c-0.5,0.5-0.6,1.2-0.9,1.8c-0.3,0.6-0.5,1.4-0.8,2.1S4.6,23,4.3,23.7
			c-0.1,0.4-0.1,0.4-0.5,0.3c-0.5-0.1-0.8-0.5-0.9-1c-0.3-0.8-0.5-1.4-0.8-2.2c-0.3-0.8-0.5-1.4-0.8-2.2C1.3,18.1,1.2,17.8,1.1,17.5
			C1.2,17.7,1.1,17.5,1.1,17.5z"/>
	</g>
	<g>
		<path class="st0" d="M12.3,10c0,0.6,0,1.2,0,1.8s0.3,1.2,0.8,1.5c0.8,0.5,1.8,0.3,2.3-0.6c0.1-0.4,0.3-0.8,0.3-1.2
			c0-0.6,0-1.2,0-1.8s0-1.3-0.1-1.9c0-0.1,0-0.1,0.1-0.1s0.1,0,0.3,0c0.3,0,0.4,0.1,0.4,0.4c0,0.5,0,1,0,1.5s0,0.9,0,1.4
			s0,0.9-0.1,1.4c-0.1,0.6-0.5,1.3-1.3,1.5c-0.5,0.1-1,0.3-1.5,0.1c-0.4,0-0.8-0.1-1.2-0.4c-0.5-0.4-0.8-0.8-0.8-1.3
			c-0.1-0.5-0.1-0.9-0.1-1.4c0-0.8,0-1.7,0-2.4c0-0.3,0-0.4,0-0.6c0-0.1,0-0.1,0.1-0.1c0.3,0,0.4,0,0.6,0s0.4,0.3,0.4,0.5
			C12.3,8.8,12.3,9.5,12.3,10L12.3,10z"/>
		<path class="st0" d="M17.8,12.7l0.1,0.1c0.6,0.5,1.3,0.8,2.1,0.8c0.8-0.1,1-0.8,0.8-1.3c-0.1-0.3-0.4-0.5-0.8-0.6
			c-0.4-0.3-0.9-0.4-1.3-0.6c-0.4-0.1-0.6-0.4-0.9-0.8c-0.4-0.6-0.3-1.5,0.5-2.1c0.6-0.5,1.3-0.6,2.1-0.5c0.4,0,0.6,0.1,1,0.3
			c0.3,0.1,0.4,0.3,0.3,0.6c0,0.1-0.1,0.3-0.3,0.4c-0.1,0.1-0.1,0.1-0.3,0c-0.3-0.3-0.5-0.5-0.9-0.8C19.6,7.9,19,8,18.7,8.7
			c-0.1,0.4,0,0.8,0.3,1c0.4,0.3,0.8,0.4,1.2,0.6c0.5,0.3,0.9,0.4,1.3,0.8c0.4,0.4,0.5,0.8,0.4,1.3c-0.1,0.9-0.6,1.3-1.3,1.5
			c-0.9,0.3-1.7,0.1-2.6-0.3l-0.1-0.1c-0.3-0.1-0.3-0.4-0.1-0.6C17.7,12.9,17.8,12.8,17.8,12.7z"/>
		<path class="st0" d="M24.5,11.3c0-0.8,0-1.4,0-2.2c0-0.3,0-0.4,0-0.6c0-0.1-0.1-0.1-0.1-0.1c-0.5,0-1.2,0-1.7,0.1
			c-0.1,0-0.3,0-0.1-0.1V8.2c0-0.4,0-0.4,0.4-0.4c1.3,0,2.7,0,4,0c0.1,0,0.3,0,0.5,0h0.1c0,0.1,0,0.3,0,0.4s-0.1,0.1-0.3,0.1
			c-0.5,0-1,0-1.5,0c-0.3,0-0.3,0-0.3,0.3c0,1,0,1.9,0,3c0,0.5,0,1,0,1.5c0,0.3,0,0.5,0.1,0.8V14c-0.3,0-0.5,0.1-0.8,0
			c-0.1-0.1-0.3-0.3-0.3-0.4c0-0.4,0-0.6,0-1C24.5,12.2,24.5,11.7,24.5,11.3L24.5,11.3z"/>
		<path class="st0" d="M7.6,15.8c0.1-0.1,0.3-0.3,0.3-0.4c0.3-0.4,0.4-0.8,0.4-1.2c0-0.6,0.1-1.4,0.1-2.2c0-0.5,0-0.9,0-1.4
			c0-0.8,0-1.5-0.1-2.4c0-0.1,0-0.4,0-0.5c0,0,0-0.1,0.1-0.1c0.3-0.1,0.5-0.1,0.8,0C9.4,7.7,9.4,7.8,9.4,8c0,0.8,0,1.5,0,2.3
			c0,0.5,0,1.2,0,1.7c0,0.6,0,1.3,0,1.9c0,0.3-0.1,0.6-0.3,0.9c-0.3,0.4-0.6,0.6-1,0.8C8,15.8,7.9,15.9,7.6,15.8
			C7.6,15.9,7.6,15.9,7.6,15.8z"/>
	</g>
</g>
</svg>
