<?xml version="1.0" encoding="utf-8"?>
<!-- Generator: Adobe Illustrator 23.0.3, SVG Export Plug-In . SVG Version: 6.00 Build 0)  -->
<svg version="1.1" id="Layer_1" xmlns="http://www.w3.org/2000/svg" xmlns:xlink="http://www.w3.org/1999/xlink" x="0px" y="0px"
	 viewBox="0 0 32 32" style="enable-background:new 0 0 32 32;" xml:space="preserve">
<style type="text/css">
	.st0{fill:#10B981;}
	.st1{fill:#FFFFFF;}
</style>
<path class="st0" d="M25.9,28c2-2.3,3.3-5,3.6-8c-0.8,3.7-2.8,6.5-5.9,8.6c-2.6,1.7-5.5,2.4-8.6,2.1C8.5,30,3.8,25,3,19.3
	c-0.6-4.1,0.4-7.7,3.1-10.9c2.7-3.1,6.2-4.6,10.3-4.7c-4-0.3-7.6,0.8-10.6,3.4C2.7,9.6,1,13,0.6,17c-0.1-2.8,0.5-5.5,1.9-8
	C3.8,6.4,5.8,4.4,8.2,3c7.2-4.1,16.2-1.8,20.6,5.1C33.2,15,31.2,23.5,25.9,28z M20.4,22.9C20.4,22.9,20.4,22.9,20.4,22.9
	C20.5,22.9,20.5,22.9,20.4,22.9c0.6-0.6,1.1-1.1,1.4-1.8c0.3-0.6,0.6-1.2,0.6-1.9c0-0.7-0.1-1.3-0.5-1.9c-0.4-0.6-0.9-1.1-1.5-1.5
	c-0.1-0.1-0.2-0.1-0.4-0.2c0,0,0,0.1,0,0.1c0.2,0.5,0.3,1,0.3,1.6c0,0.5-0.2,0.9-0.5,1.3c-0.2,0.2-0.3,0.3-0.5,0.5
	c-0.4,0.5-0.4,1-0.2,1.5c0.1,0.4,0.4,0.7,0.6,1c0.1,0.1,0.1,0.1,0.2,0.2c0.6-1.1,0.9-2.3,0.9-3.6c0.1,0,0.1,0,0.1,0.1
	c0.1,0.3,0.2,0.6,0.2,0.9c0,0.6-0.1,1.2-0.2,1.8c-0.1,0.3-0.2,0.7-0.3,1C20.6,22.4,20.5,22.7,20.4,22.9z M27.3,20.2
	C27.3,20.2,27.3,20.2,27.3,20.2c-0.1,0-0.1,0-0.1-0.1c-0.4-0.5-0.8-1-1.2-1.5c-0.5-0.6-0.9-1.2-1.4-1.8c-0.2-0.2-0.4-0.3-0.7-0.2
	c-0.1,0-0.1,0.1-0.1,0.1c0,0.1,0,0.3,0,0.4c0,0.8,0,1.5,0.1,2.3c0,0.3,0,0.7,0,1c0,0.3,0,0.5-0.1,0.8c0,0.2,0,0.2,0.2,0.2
	c0,0,0.1,0,0.1,0c0.1,0,0.2,0,0.2-0.1c0-0.1,0-0.1,0-0.2c0-0.6,0-1.1,0-1.7c0-0.5,0-1,0-1.5c0,0,0-0.1,0-0.1c0,0,0,0,0,0
	c0.3,0.3,0.5,0.7,0.8,1c0.7,0.8,1.4,1.6,2,2.5c0.1,0.1,0.2,0.2,0.3,0.1c0.1,0,0.2,0,0.3-0.1c0-0.3,0-0.5,0-0.7c0-0.7,0-1.4,0-2.1
	c0-0.6,0-1.2,0-1.8c0-0.2-0.1-0.3-0.3-0.3c-0.1,0-0.1,0-0.2,0c-0.1,0-0.1,0-0.1,0.1c0,0.1,0,0.3,0,0.4c0,0.7,0,1.4,0.1,2.1
	c0,0.3,0,0.5,0,0.8C27.3,20.1,27.3,20.1,27.3,20.2z M17.8,21.5c0-0.1,0-0.1,0-0.2c0-0.2,0-0.4,0-0.7c0-0.4,0-0.8,0-1.1
	c0-0.1-0.1-0.2-0.2-0.3c-0.2-0.1-0.4-0.1-0.6-0.1c-0.1,0-0.1,0-0.1,0.1c0,0.1,0,0.2,0,0.2c0,0.4,0,0.9,0,1.3c0,0.1-0.1,0.2-0.2,0.2
	c-0.2,0-0.4,0.1-0.6,0.1c-0.6,0-1-0.3-1.3-0.7c-0.3-0.4-0.4-0.8-0.4-1.3c0-0.5,0-1,0.2-1.4c0.4-0.7,1.2-1,1.9-0.7
	c0.3,0.1,0.5,0.3,0.7,0.6c0.1,0.1,0.1,0.1,0.2,0c0.1-0.1,0.1-0.2,0.2-0.3c0.1-0.2,0-0.4-0.2-0.5c-0.2-0.1-0.5-0.2-0.7-0.3
	c-0.4-0.1-0.7-0.1-1.1,0c-0.4,0.1-0.7,0.2-1,0.5c-0.5,0.4-0.8,1-1,1.7c-0.1,0.5-0.1,0.9,0.1,1.4c0.3,0.8,0.8,1.2,1.6,1.4
	c0.5,0.1,1.1,0,1.6,0C17.3,21.5,17.5,21.4,17.8,21.5z M13.3,9.2C13.3,9.2,13.3,9.2,13.3,9.2c0-0.5,0-0.9,0-1.4
	c0-0.2-0.1-0.3-0.3-0.4c-0.2,0-0.3,0-0.5,0c-0.1,0-0.1,0-0.1,0.1c0,0.2,0,0.3,0,0.5c0,0.6,0,1.3,0,1.9c0,0.4,0,0.7,0.1,1.1
	c0.1,0.4,0.3,0.8,0.6,1c0.3,0.2,0.5,0.3,0.9,0.3c0.4,0.1,0.8,0,1.2-0.1c0.5-0.2,0.8-0.7,1-1.2c0.1-0.4,0.1-0.7,0.1-1.1
	c0-0.4,0-0.7,0-1.1c0-0.4,0-0.8,0-1.2c0-0.2-0.1-0.3-0.3-0.3c-0.1,0-0.1,0-0.2,0c-0.1,0-0.1,0-0.1,0.1c0,0.5,0.1,1,0.1,1.5
	c0,0.5,0,0.9,0,1.4c0,0.3-0.1,0.6-0.2,0.9c-0.3,0.7-1.2,0.9-1.8,0.5c-0.4-0.3-0.6-0.7-0.6-1.2C13.3,10.2,13.3,9.7,13.3,9.2z
	 M17.6,11.3c0,0.1-0.1,0.1-0.1,0.2c-0.1,0.2-0.1,0.4,0.1,0.5c0,0,0.1,0.1,0.1,0.1c0.6,0.3,1.3,0.4,2,0.2c0.6-0.2,1-0.6,1-1.2
	c0-0.4-0.1-0.7-0.3-1c-0.3-0.3-0.7-0.5-1-0.6c-0.3-0.1-0.6-0.3-0.9-0.5c-0.2-0.2-0.3-0.5-0.2-0.8c0.2-0.5,0.7-0.6,1.2-0.4
	c0.3,0.1,0.5,0.3,0.7,0.6c0.1,0.1,0.1,0.1,0.2,0c0.1-0.1,0.1-0.2,0.2-0.3c0.1-0.2,0-0.3-0.2-0.5c-0.2-0.1-0.5-0.2-0.8-0.2
	c-0.6-0.1-1.1,0-1.6,0.4c-0.5,0.4-0.6,1.1-0.4,1.6c0.2,0.3,0.4,0.5,0.7,0.6c0.3,0.2,0.7,0.3,1,0.5c0.2,0.1,0.5,0.3,0.6,0.5
	c0.2,0.4,0,0.9-0.6,1c-0.6,0.1-1.2-0.1-1.6-0.6C17.7,11.4,17.6,11.4,17.6,11.3z M12.9,20.9c-0.2,0-0.3,0.1-0.4,0.1
	c-0.6,0-1.1,0-1.7,0.1c-0.1,0-0.1,0-0.1-0.1c0-0.2,0-0.3,0-0.5c0-0.4,0-0.8,0-1.2c0,0,0.1-0.1,0.1-0.1c0.3,0,0.6,0,1,0
	c0.3,0,0.4-0.1,0.4-0.4c0-0.1,0-0.1-0.1-0.1c-0.4,0-0.8,0-1.3,0c-0.1,0-0.1,0-0.1-0.1c0-0.2,0-0.3,0-0.5c0-0.3,0-0.6,0-0.9
	c0-0.2,0-0.2,0.2-0.2c0.4,0,0.8,0,1.2,0c0.3,0,0.4-0.1,0.4-0.4c0-0.1,0-0.1-0.1-0.1c-0.2,0-0.4,0-0.7,0c-0.6,0-1.2,0-1.8,0
	c0,0-0.1,0-0.1,0c-0.1,0-0.1,0-0.1,0.1c0,0.1,0,0.2,0,0.3c0,0.7,0,1.3,0.1,2c0,0.5,0,0.9,0,1.4c0,0,0,0.1,0,0.1c0,0.3,0,0.6-0.1,1
	c0,0,0.1,0,0.1,0c0.5,0,1.1,0,1.6,0c0,0,0.1,0,0.1,0c0.3,0,0.6,0,1,0c0.1,0,0.2-0.1,0.2-0.2C12.9,21.2,12.9,21,12.9,20.9z M4.6,16.7
	c0,0.1,0.1,0.1,0.1,0.1C4.8,17,4.9,17.2,5,17.4c0.2,0.6,0.4,1.1,0.6,1.7c0.2,0.6,0.4,1.1,0.6,1.7c0.1,0.4,0.4,0.6,0.7,0.8
	c0.3,0.1,0.3,0.1,0.4-0.2c0.2-0.5,0.4-1.1,0.6-1.6c0.2-0.5,0.4-1.1,0.6-1.6c0.2-0.5,0.3-1,0.7-1.4c0,0,0-0.1,0-0.1
	c-0.2-0.1-0.5-0.1-0.7,0.1c-0.1,0.3-0.2,0.5-0.3,0.8c-0.1,0.4-0.2,0.8-0.4,1.2c-0.2,0.5-0.3,1-0.5,1.5c-0.1,0.2-0.1,0.3-0.2,0.5
	c0-0.1-0.1-0.1-0.1-0.2c-0.2-0.6-0.5-1.3-0.7-1.9c-0.1-0.4-0.3-0.9-0.4-1.3c0-0.1-0.1-0.3-0.1-0.4c-0.2-0.3-0.4-0.4-0.8-0.3
	C4.9,16.6,4.7,16.6,4.6,16.7z M22.8,10.2C22.8,10.2,22.8,10.2,22.8,10.2c0,0.3,0,0.7,0,1c0,0.3,0,0.5,0,0.8c0,0.1,0.1,0.3,0.2,0.3
	c0.2,0.1,0.4,0,0.6,0c0,0,0-0.1,0-0.1c0-0.2-0.1-0.4-0.1-0.6c0-0.4,0-0.8,0-1.2c0-0.8,0-1.5,0-2.3c0-0.2,0-0.2,0.2-0.2
	c0.4,0,0.8,0,1.2,0c0.1,0,0.2,0,0.2-0.1c0-0.1,0-0.2,0-0.3c0,0-0.1,0-0.1,0c-0.1,0-0.2,0-0.4,0c-1,0-2.1,0-3.1,0
	c-0.3,0-0.3,0-0.3,0.3c0,0,0,0.1,0,0.1c0,0.1,0,0.1,0.1,0.1c0.4,0,0.9,0,1.3-0.1c0.1,0,0.1,0,0.1,0.1c0,0.2,0,0.3,0,0.5
	C22.8,9.1,22.8,9.6,22.8,10.2z M9.7,13.7C9.7,13.8,9.7,13.8,9.7,13.7c0.1,0,0.3,0,0.4,0c0.4-0.1,0.6-0.3,0.8-0.6
	c0.1-0.2,0.2-0.4,0.2-0.7c0-0.5,0-1,0-1.5c0-0.4,0-0.9,0-1.3c0-0.6,0-1.2,0-1.8c0-0.2-0.1-0.3-0.2-0.4c-0.2-0.1-0.4-0.1-0.6,0
	c0,0-0.1,0.1-0.1,0.1c0,0.2,0,0.3,0,0.4c0,0.6,0,1.2,0.1,1.9c0,0.4,0,0.7,0,1.1c0,0.6,0,1.1-0.1,1.7c0,0.3-0.1,0.6-0.3,0.9
	C9.9,13.6,9.8,13.7,9.7,13.7z"/>
<g>
	<path class="st1" d="M20.4,22.9c0.1-0.3,0.2-0.6,0.3-0.8c0.1-0.3,0.2-0.7,0.3-1c0.2-0.6,0.3-1.2,0.2-1.8c0-0.3-0.1-0.6-0.2-0.9
		c0,0,0,0-0.1-0.1c0,1.3-0.3,2.5-0.9,3.6c-0.1-0.1-0.2-0.1-0.2-0.2c-0.3-0.3-0.5-0.6-0.6-1c-0.2-0.5-0.2-1.1,0.2-1.5
		c0.2-0.2,0.3-0.3,0.5-0.5c0.3-0.4,0.5-0.8,0.5-1.3c0-0.6-0.1-1.1-0.3-1.6c0,0,0,0,0-0.1c0.1,0.1,0.3,0.1,0.4,0.2
		c0.6,0.4,1.1,0.9,1.5,1.5c0.4,0.6,0.5,1.2,0.5,1.9c0,0.7-0.3,1.3-0.6,1.9C21.5,21.8,21,22.4,20.4,22.9
		C20.5,22.9,20.5,22.9,20.4,22.9C20.4,22.9,20.4,22.9,20.4,22.9z"/>
	<path class="st1" d="M27.3,20.2c0,0,0-0.1,0-0.1c0-0.3,0-0.5,0-0.8c0-0.7,0-1.4-0.1-2.1c0-0.1,0-0.3,0-0.4c0-0.1,0-0.1,0.1-0.1
		c0.1,0,0.1,0,0.2,0c0.2,0,0.3,0.1,0.3,0.3c0,0.6,0,1.2,0,1.8c0,0.7,0,1.4,0,2.1c0,0.2,0,0.5,0,0.7c-0.1,0-0.2,0-0.3,0.1
		c-0.1,0-0.2,0-0.3-0.1c-0.6-0.9-1.4-1.7-2-2.5c-0.3-0.3-0.5-0.7-0.8-1c0,0,0,0,0,0c0,0,0,0.1,0,0.1c0,0.5,0,1,0,1.5
		c0,0.6,0,1.1,0,1.7c0,0.1,0,0.1,0,0.2c0,0.1-0.1,0.1-0.2,0.1c0,0-0.1,0-0.1,0c-0.2,0-0.2,0-0.2-0.2c0-0.3,0.1-0.5,0.1-0.8
		c0-0.3,0-0.7,0-1c0-0.8,0-1.5-0.1-2.3c0-0.1,0-0.3,0-0.4c0-0.1,0-0.1,0.1-0.1c0.3-0.1,0.5,0,0.7,0.2c0.5,0.6,0.9,1.2,1.4,1.8
		c0.4,0.5,0.8,1,1.2,1.5C27.3,20.1,27.3,20.2,27.3,20.2C27.3,20.2,27.3,20.2,27.3,20.2z"/>
	<path class="st1" d="M17.8,21.5c-0.3-0.1-0.5,0-0.7,0c-0.5,0.1-1.1,0.2-1.6,0c-0.8-0.2-1.4-0.6-1.6-1.4c-0.2-0.5-0.2-0.9-0.1-1.4
		c0.1-0.7,0.4-1.2,1-1.7c0.3-0.2,0.7-0.4,1-0.5c0.4-0.1,0.8,0,1.1,0c0.2,0,0.5,0.2,0.7,0.3c0.2,0.1,0.3,0.3,0.2,0.5
		c0,0.1-0.1,0.2-0.2,0.3c-0.1,0.1-0.1,0.1-0.2,0c-0.2-0.2-0.4-0.5-0.7-0.6c-0.7-0.4-1.6-0.1-1.9,0.7c-0.2,0.4-0.3,0.9-0.2,1.4
		c0,0.5,0.2,0.9,0.4,1.3c0.3,0.5,0.8,0.7,1.3,0.7c0.2,0,0.4,0,0.6-0.1c0.1,0,0.2-0.1,0.2-0.2c0-0.4,0-0.9,0-1.3c0-0.1,0-0.2,0-0.2
		c0-0.1,0-0.1,0.1-0.1c0.2,0,0.4,0,0.6,0.1c0.1,0.1,0.2,0.1,0.2,0.3c0,0.4,0,0.8,0,1.1c0,0.2,0,0.4,0,0.7
		C17.8,21.4,17.8,21.5,17.8,21.5z"/>
	<path class="st1" d="M13.3,9.2c0,0.5,0,0.9,0,1.4c0,0.5,0.2,0.9,0.6,1.2c0.6,0.4,1.4,0.2,1.8-0.5c0.1-0.3,0.2-0.6,0.2-0.9
		c0-0.5,0-0.9,0-1.4c0-0.5,0-1-0.1-1.5c0-0.1,0-0.1,0.1-0.1c0.1,0,0.1,0,0.2,0c0.2,0,0.3,0.1,0.3,0.3c0,0.4,0,0.8,0,1.2
		c0,0.4,0,0.7,0,1.1c0,0.4,0,0.7-0.1,1.1c-0.1,0.5-0.4,1-1,1.2c-0.4,0.1-0.8,0.2-1.2,0.1c-0.3,0-0.6-0.1-0.9-0.3
		c-0.4-0.3-0.6-0.6-0.6-1c-0.1-0.4-0.1-0.7-0.1-1.1c0-0.6,0-1.3,0-1.9c0-0.2,0-0.3,0-0.5c0-0.1,0-0.1,0.1-0.1c0.2,0,0.3,0,0.5,0
		c0.2,0,0.3,0.2,0.3,0.4C13.3,8.3,13.3,8.8,13.3,9.2C13.3,9.2,13.3,9.2,13.3,9.2z"/>
	<path class="st1" d="M17.6,11.3c0,0,0.1,0.1,0.1,0.1c0.5,0.4,1,0.6,1.6,0.6c0.6-0.1,0.8-0.6,0.6-1c-0.1-0.2-0.3-0.4-0.6-0.5
		c-0.3-0.2-0.7-0.3-1-0.5c-0.3-0.1-0.5-0.3-0.7-0.6c-0.3-0.5-0.2-1.2,0.4-1.6c0.5-0.4,1-0.5,1.6-0.4c0.3,0,0.5,0.1,0.8,0.2
		c0.2,0.1,0.3,0.2,0.2,0.5c0,0.1-0.1,0.2-0.2,0.3c-0.1,0.1-0.1,0.1-0.2,0c-0.2-0.2-0.4-0.4-0.7-0.6c-0.5-0.2-1-0.1-1.2,0.4
		c-0.1,0.3,0,0.6,0.2,0.8c0.3,0.2,0.6,0.3,0.9,0.5c0.4,0.2,0.7,0.3,1,0.6c0.3,0.3,0.4,0.6,0.3,1c-0.1,0.7-0.5,1-1,1.2
		c-0.7,0.2-1.3,0.1-2-0.2c0,0-0.1-0.1-0.1-0.1c-0.2-0.1-0.2-0.3-0.1-0.5C17.5,11.5,17.6,11.4,17.6,11.3z"/>
	<path class="st1" d="M12.9,20.9c0,0.2,0,0.3-0.1,0.5c0,0.1-0.1,0.1-0.2,0.2c-0.3,0-0.6,0-1,0c0,0-0.1,0-0.1,0c-0.5,0-1.1,0-1.6,0
		c0,0-0.1,0-0.1,0c0-0.3,0-0.6,0.1-1c0-0.1,0-0.1,0-0.1c0-0.5,0-0.9,0-1.4c0-0.7,0-1.3-0.1-2c0-0.1,0-0.2,0-0.3c0-0.1,0-0.1,0.1-0.1
		c0,0,0.1,0,0.1,0c0.6,0,1.2,0,1.8,0c0.2,0,0.4,0,0.7,0c0.1,0,0.1,0,0.1,0.1c0,0.2-0.1,0.4-0.4,0.4c-0.4,0-0.8,0-1.2,0
		c-0.2,0-0.2,0-0.2,0.2c0,0.3,0,0.6,0,0.9c0,0.2,0,0.3,0,0.5c0,0.1,0,0.1,0.1,0.1c0.4,0,0.8,0,1.3,0c0.1,0,0.1,0,0.1,0.1
		c0,0.3-0.1,0.4-0.4,0.4c-0.3,0-0.6,0-1,0c0,0-0.1,0.1-0.1,0.1c0,0.4,0,0.8,0,1.2c0,0.2,0,0.3,0,0.5c0,0.1,0,0.1,0.1,0.1
		c0.6,0,1.1,0,1.7-0.1C12.7,20.9,12.8,20.9,12.9,20.9z"/>
	<path class="st1" d="M4.6,16.7c0.1,0,0.2-0.1,0.3-0.1c0.4,0,0.7,0,0.8,0.3c0.1,0.1,0.1,0.3,0.1,0.4c0.1,0.4,0.3,0.9,0.4,1.3
		c0.2,0.6,0.5,1.3,0.7,1.9c0,0.1,0,0.1,0.1,0.2c0.1-0.2,0.1-0.4,0.2-0.5c0.2-0.5,0.3-1,0.5-1.5c0.1-0.4,0.2-0.8,0.4-1.2
		c0.1-0.3,0.2-0.5,0.3-0.8c0.1-0.2,0.5-0.2,0.7-0.1c0,0,0,0.1,0,0.1c-0.4,0.4-0.5,0.9-0.7,1.4c-0.2,0.5-0.4,1.1-0.6,1.6
		c-0.2,0.5-0.4,1.1-0.6,1.6c-0.1,0.3-0.1,0.3-0.4,0.2c-0.4-0.1-0.6-0.4-0.7-0.8c-0.2-0.6-0.4-1.1-0.6-1.7c-0.2-0.6-0.4-1.1-0.6-1.7
		c-0.1-0.2-0.2-0.4-0.3-0.6C4.7,16.8,4.6,16.7,4.6,16.7z"/>
	<path class="st1" d="M22.8,10.2c0-0.6,0-1.1,0-1.7c0-0.2,0-0.3,0-0.5c0-0.1-0.1-0.1-0.1-0.1c-0.4,0-0.9,0-1.3,0.1
		c-0.1,0-0.2,0-0.1-0.1c0,0,0-0.1,0-0.1c0-0.3,0-0.3,0.3-0.3c1,0,2.1,0,3.1,0c0.1,0,0.2,0,0.4,0c0,0,0.1,0,0.1,0c0,0.1,0,0.2,0,0.3
		c0,0.1-0.1,0.1-0.2,0.1c-0.4,0-0.8,0-1.2,0c-0.2,0-0.2,0-0.2,0.2c0,0.8,0,1.5,0,2.3c0,0.4,0,0.8,0,1.2c0,0.2,0,0.4,0.1,0.6
		c0,0,0,0.1,0,0.1c-0.2,0-0.4,0.1-0.6,0c-0.1-0.1-0.2-0.2-0.2-0.3c0-0.3,0-0.5,0-0.8C22.8,10.9,22.8,10.5,22.8,10.2
		C22.8,10.2,22.8,10.2,22.8,10.2z"/>
	<path class="st1" d="M9.7,13.7c0.1-0.1,0.2-0.2,0.2-0.3c0.2-0.3,0.3-0.6,0.3-0.9c0-0.5,0.1-1.1,0.1-1.7c0-0.4,0-0.7,0-1.1
		c0-0.6,0-1.2-0.1-1.9c0-0.1,0-0.3,0-0.4c0,0,0-0.1,0.1-0.1c0.2-0.1,0.4-0.1,0.6,0c0.2,0.1,0.2,0.2,0.2,0.4c0,0.6,0,1.2,0,1.8
		c0,0.4,0,0.9,0,1.3c0,0.5,0,1,0,1.5c0,0.2-0.1,0.5-0.2,0.7c-0.2,0.3-0.5,0.5-0.8,0.6C10,13.7,9.9,13.8,9.7,13.7
		C9.7,13.8,9.7,13.8,9.7,13.7z"/>
</g>
</svg>
