<?xml version="1.0" encoding="utf-8"?>
<!-- Generator: Adobe Illustrator 23.0.3, SVG Export Plug-In . SVG Version: 6.00 Build 0)  -->
<svg version="1.1" id="Layer_1" xmlns="http://www.w3.org/2000/svg" xmlns:xlink="http://www.w3.org/1999/xlink" x="0px" y="0px"
	 viewBox="0 0 32 32" style="enable-background:new 0 0 32 32;" xml:space="preserve">
<style type="text/css">
	.st0{fill:#0F766E;}
	.st1{fill:#FFFFFF;}
</style>
<path class="st0" d="M29.2,29.8H2.8c-1,0-1.8-0.8-1.8-1.8V2.8C1,1.8,1.8,1,2.8,1h26.3c1,0,1.8,0.8,1.8,1.8V28
	C31,29,30.2,29.8,29.2,29.8z"/>
<g>
	<path class="st1" d="M11.5,28c-1.1,0-2.1-0.5-2.8-1.3l0.9-1.4c0.6,0.6,1.2,0.9,1.6,0.9c0.5,0,0.8-0.3,0.8-0.9v-3.7H9.3v-1.7h4.9
		v5.4C14.3,27,13.2,28,11.5,28z"/>
	<path class="st1" d="M17.1,19.9l2.1,5.9l2.1-5.9h2.2L20.2,28h-2.2l-3.2-8.1C14.9,19.9,17.1,19.9,17.1,19.9z"/>
</g>
<g>
	<path class="st1" d="M26.8,5c-0.3,0.9-0.6,1.8-0.9,2.8c-0.4,1.2-0.9,2.5-1.6,3.5c-1.1,1.6-2.5,2.9-4.2,3.9
		c-1.1,0.6-2.4,1.1-3.6,1.5c-0.1,0-0.2,0-0.3,0.1c0.2-0.5,0.4-0.9,0.6-1.4c0.6-1.4,1.3-2.8,2.3-4c0.6-0.8,1.3-1.6,2.2-2.4
		C21,9,21,9.1,20.9,9.1c-1,0.7-2,1.6-2.8,2.7c-1,1.3-1.8,2.8-2.7,4.3c0,0.1-0.1,0.1-0.1,0.2c-0.1-0.4-0.2-0.7-0.3-1.1
		c-0.5-2.7,0.1-5.1,1.7-7.4c1.1-1.4,2.6-2.6,4.3-3.2c1.7-0.6,3.5-0.7,5.2,0.1C26.6,4.8,26.7,4.9,26.8,5L26.8,5z"/>
	<path class="st1" d="M10,9.7c0.3,0.3,0.5,0.7,0.8,1c1,1.1,2.2,2.1,3.5,2.9c0.2,0.1,0.2,0.2,0.2,0.4c0,0.6,0.1,1.1,0.1,1.7
		c-0.3,0-0.6,0-0.9-0.1c-2-0.2-3.7-0.9-5.2-2.3c-1.8-1.5-3-3.6-3.2-6C5.2,6.2,5.4,5,6,3.9C6.2,3.9,6.3,4,6.5,4C8,4.5,9.4,5,10.8,5.6
		c1.7,0.8,3.3,2,4.4,3.5c0,0.1,0.1,0.2,0.1,0.3c-0.4,1.1-0.6,2.4-0.7,3.7C12.8,12.3,11.3,11.3,10,9.7L10,9.7z"/>
</g>
</svg>
