<?xml version="1.0" encoding="utf-8"?>
<!-- Generator: Adobe Illustrator 23.0.3, SVG Export Plug-In . SVG Version: 6.00 Build 0)  -->
<svg version="1.1" id="Layer_1" xmlns="http://www.w3.org/2000/svg" xmlns:xlink="http://www.w3.org/1999/xlink" x="0px" y="0px"
	 viewBox="0 0 96 32" style="enable-background:new 0 0 96 32;" xml:space="preserve">
<style type="text/css">
	.st0{fill:#0F766E;}
	.st1{fill:#FFFFFF;}
</style>
<path class="st0" d="M34.1,30H8.5c-1,0-1.8-0.8-1.8-1.8V3.8c0-1,0.8-1.8,1.8-1.8h25.6c1,0,1.8,0.8,1.8,1.8v24.5
	C35.9,29.3,35.1,30,34.1,30z"/>
<g>
	<path class="st0" d="M43.8,14.1c-1.1,0-2.1-0.5-2.8-1.4l0.8-1.2c0.6,0.7,1.4,1,2,1c0.8,0,1.3-0.5,1.3-1.5V6h-3.3V4.6h4.9v6.5
		C46.8,13,45.6,14.1,43.8,14.1z"/>
	<path class="st0" d="M53,12.6c1.5,0,2.5-0.9,2.5-2.5V4.6H57v5.5c0,2.5-1.5,4-4.1,4c-2.5,0-4.1-1.5-4.1-4V4.6h1.6v5.5
		C50.4,11.7,51.4,12.6,53,12.6z"/>
	<path class="st0" d="M62.3,6c-0.9,0-1.5,0.3-1.5,1c0,2.1,5.1,1,5.1,4.3c0,1.7-1.5,2.7-3.6,2.7c-1.5,0-2.9-0.6-3.8-1.5l0.7-1.4
		c1,0.9,2.2,1.4,3.2,1.4c1.1,0,1.8-0.4,1.8-1.1c0-2.1-5.1-0.9-5.1-4.3c0-1.6,1.4-2.6,3.4-2.6c1.2,0,2.4,0.4,3.3,1l-0.7,1.4
		C64,6.2,63,6,62.3,6z"/>
	<path class="st0" d="M74.1,4.6V6h-3v8h-1.6V6h-3V4.6H74.1z"/>
</g>
<g>
	<path class="st0" d="M42.4,17.5l2.4,6.8l2.4-6.8h2.5L46,26.9h-2.6l-3.7-9.4H42.4z"/>
	<path class="st0" d="M58,17.5v2h-5v1.8h4.5v2H53v1.8h5.1v2h-7.6v-9.4H58V17.5z"/>
	<path class="st0" d="M65.9,22.1H68v3.7c-1,0.7-2.6,1.2-3.9,1.2c-2.9,0-5-2.1-5-4.8s2.2-4.8,5.2-4.8c1.4,0,2.9,0.5,3.9,1.4l-1.4,1.7
		c-0.7-0.6-1.6-1-2.5-1c-1.5,0-2.7,1.2-2.7,2.7s1.2,2.7,2.7,2.7c0.5,0,1.1-0.2,1.6-0.4C65.9,24.5,65.9,22.1,65.9,22.1z"/>
	<path class="st0" d="M75.9,25.2h-4.1l-0.7,1.7h-2.5l4-9.4h2.5l4,9.4h-2.6L75.9,25.2z M75.2,23.3L73.9,20l-1.3,3.4h2.6V23.3z"/>
	<path class="st0" d="M82.2,17.5l4.3,5.7v-5.7h2.3v9.4h-2.2l-4.3-5.7v5.7H80v-9.4C80,17.5,82.2,17.5,82.2,17.5z"/>
</g>
<g>
	<path class="st1" d="M17.6,28.3c-1.1,0-2-0.5-2.7-1.3l0.9-1.4c0.6,0.6,1.2,0.9,1.6,0.9c0.5,0,0.8-0.3,0.8-0.9V22h-2.7v-1.7h4.8v5.3
		C20.3,27.3,19.3,28.3,17.6,28.3z"/>
	<path class="st1" d="M23.1,20.4l2,5.7l2-5.7h2.1l-3.1,7.9H24l-3.1-7.9C20.9,20.4,23.1,20.4,23.1,20.4z"/>
</g>
<g>
	<path class="st1" d="M32.6,5.9c-0.3,0.9-0.6,1.8-0.9,2.7c-0.4,1.2-0.9,2.4-1.6,3.4c-1.1,1.6-2.4,2.8-4.1,3.8
		c-1.1,0.6-2.3,1.1-3.5,1.5c-0.1,0-0.2,0-0.3,0.1c0.2-0.5,0.4-0.9,0.6-1.4c0.6-1.4,1.3-2.7,2.2-3.9c0.6-0.8,1.3-1.6,2.1-2.3
		c-0.1,0-0.1,0.1-0.2,0.1c-1,0.7-1.9,1.6-2.7,2.6c-1,1.3-1.8,2.7-2.6,4.2c0,0.1-0.1,0.1-0.1,0.2c-0.1-0.4-0.2-0.7-0.3-1.1
		c-0.5-2.6,0.1-5,1.7-7.2c1.1-1.4,2.5-2.5,4.2-3.1c1.7-0.6,3.4-0.7,5.1,0.1C32.4,5.7,32.5,5.8,32.6,5.9C32.6,5.9,32.6,5.9,32.6,5.9z
		"/>
	<path class="st1" d="M16.3,10.5c0.3,0.3,0.5,0.7,0.8,1c1,1.1,2.1,2,3.4,2.8c0.2,0.1,0.2,0.2,0.2,0.4c0,0.6,0.1,1.1,0.1,1.7
		c-0.3,0-0.6,0-0.9-0.1c-1.9-0.2-3.6-0.9-5.1-2.2c-1.8-1.5-2.9-3.5-3.1-5.8c-0.1-1.2,0.1-2.4,0.7-3.5c0.2,0,0.3,0.1,0.5,0.1
		c1.4,0.5,2.8,1,4.1,1.6c1.7,0.8,3.2,1.9,4.3,3.4c0,0.1,0.1,0.2,0.1,0.3c-0.4,1.1-0.6,2.3-0.7,3.6C19,13,17.5,12,16.3,10.5
		C16.3,10.5,16.3,10.5,16.3,10.5z"/>
</g>
</svg>
